<svg width="12" height="15" viewBox="0 0 12 15" fill="none" xmlns="http://www.w3.org/2000/svg">
<path d="M0 7C0 5.89543 0.895431 5 2 5H10C11.1046 5 12 5.89543 12 7V13C12 14.1046 11.1046 15 10 15H2C0.895431 15 0 14.1046 0 13V7Z" fill="#28BF4C"/>
<path d="M4 9C4 7.89543 4.89543 7 6 7C7.10457 7 8 7.89543 8 9C8 9.75319 7.58366 10.4091 6.96856 10.7502C6.98908 10.8301 7 10.9138 7 11V12C7 12.5523 6.55228 13 6 13C5.44772 13 5 12.5523 5 12V11C5 10.9138 5.01092 10.8301 5.03144 10.7502C4.41634 10.4091 4 9.75319 4 9Z" fill="white"/>
<path d="M2.99951 4.87305L2.96826 4.75098C2.96692 4.74576 2.95888 4.70803 2.96729 4.57129C2.97196 4.49528 2.97768 4.43996 2.98584 4.33203C2.99288 4.23877 2.99951 4.12384 2.99951 4C2.99951 2.34327 4.34283 1.00021 5.99951 1C7.6564 1 9.00049 2.34318 9.00049 4C9.00049 4.12384 9.00711 4.23877 9.01416 4.33203C9.02233 4.44001 9.02803 4.49524 9.03271 4.57129C9.04114 4.70811 9.03307 4.74581 9.03174 4.75098L9.00049 4.87305V6H2.99951V4.87305Z" stroke="#28BF4C" stroke-width="2"/>
</svg>
