<svg width="22" height="37" viewBox="0 0 22 37" fill="none" xmlns="http://www.w3.org/2000/svg">
<g clip-path="url(#clip0_29_75)">
<path fill-rule="evenodd" clip-rule="evenodd" d="M10.1427 0.75816C10.6643 0.385626 11.3649 0.385626 11.8865 0.75816C18.3833 5.39878 21.3286 10.9621 21.5142 18.9439C21.5999 22.7553 21.233 26.2451 20.1164 29.2598C18.9712 32.2763 16.9346 35.0633 13.9363 37.4168C13.558 37.7114 13.0616 37.8074 12.6007 37.6751C11.6824 37.4115 11.5261 36.323 11.0146 35.6445C10.5028 36.3234 10.3474 37.4113 9.42845 37.6751C8.96757 37.8074 8.47122 37.7114 8.09292 37.4168C5.09455 35.0633 3.05804 32.2763 1.91276 29.2598C0.796154 26.2451 0.429289 22.7553 0.51498 18.9439C0.700605 10.9621 3.64585 5.39878 10.1427 0.75816ZM13.5015 33.9788C15.3777 32.2538 16.5083 30.3714 17.3072 28.2071C18.3123 25.5603 18.6022 22.6371 18.515 19.0137C18.3703 12.7898 16.9139 8.7394 12.5015 4.97876V15.9788C14.2267 16.4228 15.0015 18.115 15.0015 19.9788C15.0015 21.8426 14.2267 23.5348 12.5015 23.9788V32.9788C12.5015 32.9788 13.3032 33.7179 13.5015 33.9788ZM8.5014 33.9788C6.62511 32.2538 5.52092 30.3714 4.72198 28.2071C3.71694 25.5603 3.42696 22.6371 3.51417 19.0137C3.65862 12.8022 5.10747 8.73439 9.5014 4.97876V15.9788C7.77617 16.4228 7.0014 18.115 7.0014 19.9788C7.0014 21.8426 7.77617 23.5348 9.5014 23.9788V32.9788C9.5014 32.9788 8.69228 33.7275 8.5014 33.9788ZM11.0015 17.9788C9.89683 17.9788 9.0014 18.8742 9.0014 19.9788C9.0014 21.0834 9.89683 21.9788 11.0015 21.9788C12.106 21.9788 13.0015 21.0834 13.0015 19.9788C13.0015 18.8742 12.106 17.9788 11.0015 17.9788Z" fill="#1188EE"/>
</g>
<defs>
<clipPath id="clip0_29_75">
<rect width="22" height="37" fill="white"/>
</clipPath>
</defs>
</svg>
