<svg width="55" height="64" viewBox="0 0 55 64" fill="none" xmlns="http://www.w3.org/2000/svg">
<path fill-rule="evenodd" clip-rule="evenodd" d="M27.3733 14.2201C24.3929 14.1876 21.4087 14.3978 18.4793 14.8889C14.9405 15.4809 11.1565 16.3961 8.04599 18.593C5.56297 20.3469 3.77229 22.9081 2.44559 25.4847C1.07461 28.1471 0.16451 31.1532 0.0333657 34.1966C-0.153733 38.5046 0.418732 43.1153 2.44559 47.0656C5.61486 53.2425 10.559 59.1929 16.9864 62.1824C21.7914 64.4174 27.5266 64.3821 32.5309 63.2026C38.5036 61.7949 44.3814 58.5848 48.4802 53.9234C52.0369 49.8784 53.8932 44.4651 54.6752 39.2807C55.3076 35.0881 55.0869 30.5079 53.3848 26.5049C52.0068 23.2642 49.5019 20.5141 46.6542 18.5803C43.5161 16.4497 39.7495 15.617 36.242 15.0244C33.3277 14.532 30.3536 14.2533 27.3733 14.2201ZM27.348 16.3875C30.2102 16.42 33.0753 16.6877 35.8835 17.1622C39.3057 17.7404 42.7612 18.5539 45.4438 20.3752C47.9872 22.1024 50.2213 24.5873 51.3985 27.3558C52.8907 30.8652 53.1271 35.0752 52.5413 38.959C51.8024 43.8575 50.027 48.8916 46.8608 52.4926C43.1175 56.7498 37.6021 59.7827 32.0375 61.0944C27.388 62.1903 22.0854 62.168 17.8931 60.2182C12.0818 57.5152 7.37126 51.9352 4.36439 46.075C2.57769 42.5926 2.01691 38.3339 2.19255 34.2898C2.30755 31.6208 3.11972 28.8966 4.36439 26.4795C5.59245 24.0942 7.22278 21.8271 9.29005 20.3667C11.9506 18.4878 15.4119 17.5991 18.8335 17.0267C21.6281 16.5594 24.4857 16.3559 27.348 16.3875Z" fill="#1188EE"/>
<path fill-rule="evenodd" clip-rule="evenodd" d="M3.60109 25.0231C3.38672 25.0356 3.18092 25.112 3.00998 25.2425C2.83905 25.3729 2.71076 25.5515 2.64149 25.7555C2.57223 25.9595 2.56514 26.1797 2.62114 26.3878C2.67714 26.5959 2.79368 26.7826 2.95586 26.9239C2.95586 26.9239 3.96689 27.8303 5.28374 28.8542C6.60059 29.8779 8.18378 31.0301 9.62321 31.5973C15.7215 33.9999 22.4328 34.3007 28.786 34.2431C42.2265 34.1217 52.6215 28.452 52.6215 28.452C52.7498 28.3863 52.8637 28.2954 52.9565 28.1848C53.0493 28.0742 53.1191 27.9462 53.1618 27.8081C53.2045 27.67 53.2193 27.5247 53.2052 27.3808C53.1911 27.2369 53.1485 27.0973 53.0798 26.9702C53.0111 26.843 52.9178 26.7309 52.8054 26.6405C52.6929 26.5501 52.5635 26.4833 52.4249 26.4439C52.2863 26.4045 52.1413 26.3934 51.9983 26.4111C51.8553 26.4288 51.7174 26.475 51.5925 26.5471C51.5925 26.5471 41.6109 31.9591 28.7649 32.0757C22.4972 32.132 16.0626 31.8044 10.4118 29.5781C9.44655 29.1979 7.86122 28.1142 6.60793 27.1398C5.35465 26.1655 4.39392 25.3068 4.39392 25.3068C4.28741 25.2086 4.16235 25.133 4.02616 25.0843C3.88997 25.0356 3.74542 25.0147 3.60109 25.0231Z" fill="#1188EE"/>
<path fill-rule="evenodd" clip-rule="evenodd" d="M53.3046 32.7445C53.0247 32.7557 52.7601 32.8756 52.5666 33.079C52.5666 33.079 52.0798 33.5752 51.4449 34.1584C50.8099 34.7419 49.997 35.4171 49.5514 35.6739C46.9236 37.1892 43.9039 38.1398 40.8513 38.7345C38.2432 39.243 32.1808 39.1198 32.1808 39.1198C32.039 39.1158 31.8978 39.1398 31.7653 39.1907C31.6328 39.2415 31.5115 39.3182 31.4085 39.4161C31.3054 39.514 31.2226 39.6313 31.1647 39.7614C31.1069 39.8914 31.0751 40.0315 31.0712 40.1738C31.0673 40.3162 31.0914 40.4581 31.1422 40.5911C31.1929 40.7241 31.2692 40.8457 31.3667 40.949C31.4643 41.0524 31.5812 41.1355 31.7108 41.1935C31.8403 41.2515 31.98 41.2833 32.1218 41.2872C32.1218 41.2872 38.0378 41.493 41.2646 40.8638C44.4776 40.2379 47.7201 39.2295 50.6267 37.5535C51.4136 37.0996 52.223 36.3886 52.904 35.7628C53.5851 35.1371 54.1059 34.6027 54.1059 34.6027C54.2608 34.4491 54.3658 34.2521 54.4072 34.0375C54.4485 33.823 54.4243 33.6009 54.3376 33.4004C54.251 33.1999 54.106 33.0304 53.9216 32.9141C53.7373 32.7979 53.5222 32.7402 53.3046 32.7488L53.3046 32.7445Z" fill="#1188EE"/>
<path fill-rule="evenodd" clip-rule="evenodd" d="M52.4275 42.1169C52.2577 42.122 52.0915 42.1674 51.9425 42.2492C51.9425 42.2492 46.3066 45.1549 43.5925 45.9363C41.7734 46.4599 37.33 46.8464 37.33 46.8464C37.0442 46.8689 36.779 47.0042 36.5928 47.2229C36.4065 47.4417 36.3144 47.7258 36.3368 48.0127C36.3592 48.2996 36.4942 48.5657 36.7121 48.7527C36.93 48.9397 37.2129 49.0321 37.4987 49.0096C37.4987 49.0096 41.8114 48.7029 44.1871 48.019C47.4579 47.0773 52.942 44.171 52.942 44.171C53.1622 44.0608 53.3383 43.8785 53.4411 43.6541C53.5439 43.4296 53.5672 43.1764 53.5072 42.9368C53.4471 42.6972 53.3073 42.4854 53.111 42.3365C52.9146 42.1875 52.6735 42.1094 52.4275 42.1169Z" fill="#1188EE"/>
<path fill-rule="evenodd" clip-rule="evenodd" d="M27.9552 18.868C25.9709 18.8897 23.432 18.9309 21.0138 19.1136C18.5941 19.2956 16.3255 19.5889 14.688 20.2311C11.5681 21.4553 10.0576 23.7659 10.0576 23.7659C9.97967 23.8862 9.92635 24.021 9.90071 24.1622C9.87508 24.3034 9.87763 24.4482 9.90823 24.5884C9.93884 24.7286 9.99687 24.8612 10.079 24.9787C10.1611 25.0962 10.2656 25.1963 10.3865 25.2729C10.3865 25.2729 15.2469 28.4 19.7149 29.3452C24.0969 30.2727 31.3151 30.31 35.7359 29.4124C40.2462 28.4974 45.2667 25.3441 45.2667 25.3441C45.4121 25.2539 45.5341 25.1307 45.6227 24.984C45.7113 24.8373 45.7639 24.6714 45.7763 24.5003C45.7886 24.3292 45.7604 24.1577 45.6938 23.9998C45.6272 23.8418 45.5242 23.7017 45.3932 23.5915C45.3932 23.5915 42.2096 20.8203 39.0253 19.7986C35.931 18.8059 31.9187 18.8324 27.9595 18.8673L27.9552 18.868ZM27.9764 21.0355C31.9206 21.0008 35.8257 21.0572 38.3675 21.8652C40.1786 22.4462 41.4968 23.5854 42.5299 24.367C40.8906 25.2751 38.1137 26.7192 35.3101 27.2879C31.3787 28.0855 24.057 28.0485 20.162 27.2249C17.2446 26.6077 14.3691 25.0378 12.8874 24.1858C13.3518 23.63 13.6787 22.9549 15.4725 22.2512C16.6456 21.791 18.8408 21.4537 21.1741 21.2775C23.5075 21.102 26.0089 21.0528 27.9764 21.0355Z" fill="#1188EE"/>
<path fill-rule="evenodd" clip-rule="evenodd" d="M17.6611 9.61005L15.5989 10.2493L21.1993 28.5367L23.2615 27.8975L17.6611 9.61005Z" fill="#1188EE"/>
<path fill-rule="evenodd" clip-rule="evenodd" d="M46.5066 4.43687C46.3731 4.44073 46.2416 4.4694 46.1186 4.5214L36.942 8.24663C36.7718 8.31603 36.6221 8.42782 36.507 8.57153C36.3918 8.71523 36.3152 8.88611 36.2841 9.06787L32.9737 28.2359C32.9496 28.3762 32.9533 28.52 32.9845 28.6589C33.0158 28.7978 33.074 28.9294 33.1559 29.0457C33.3212 29.2807 33.5727 29.4401 33.8551 29.4889C33.9949 29.5131 34.1381 29.5094 34.2765 29.478C34.4149 29.4467 34.5458 29.3882 34.6618 29.3061C34.8959 29.1401 35.0547 28.8876 35.1033 28.6041L38.3084 10.0288L46.9283 6.53218C47.1668 6.44056 47.3653 6.26707 47.4884 6.04245C47.6115 5.81783 47.6513 5.55664 47.6007 5.30534C47.5502 5.05405 47.4125 4.82886 47.2122 4.66983C47.0118 4.5108 46.7618 4.42836 46.5066 4.43687Z" fill="#1188EE"/>
<path fill-rule="evenodd" clip-rule="evenodd" d="M15.3122 2.81577C15.1598 2.82148 15.0104 2.85958 14.8738 2.92743C14.7371 2.99527 14.6163 3.09139 14.5193 3.20946L7.56945 11.6082C7.42432 11.7845 7.33852 12.0024 7.32434 12.2307C7.31015 12.459 7.36831 12.686 7.49048 12.8792C7.61264 13.0723 7.79256 13.2217 8.00445 13.3059C8.21635 13.3902 8.44937 13.4048 8.67013 13.348L25.8762 8.87773C26.0978 8.82002 26.2953 8.69331 26.4404 8.51553C26.5854 8.33774 26.6704 8.11819 26.6831 7.88875C26.6957 7.65931 26.6354 7.43174 26.5109 7.23895C26.3863 7.04616 26.2039 6.8981 25.99 6.81616L15.7339 2.88774C15.5995 2.83591 15.4561 2.81115 15.3122 2.81577ZM15.6875 5.18624L22.0596 7.62894L11.3691 10.4059L15.6875 5.18624Z" fill="#1188EE"/>
<path fill-rule="evenodd" clip-rule="evenodd" d="M14.4898 0.000844922C14.3205 0.00755438 14.1552 0.0540945 14.0071 0.136837C13.8591 0.219579 13.7326 0.336146 13.6377 0.477081C13.5429 0.618016 13.4824 0.779419 13.4612 0.948158C13.44 1.1169 13.4586 1.28831 13.5157 1.44847L14.3928 4.04753C14.4364 4.18462 14.5067 4.3116 14.5997 4.42111C14.6927 4.53062 14.8065 4.62052 14.9344 4.68542C15.0624 4.75033 15.2019 4.78899 15.3449 4.79919C15.4879 4.80939 15.6315 4.79091 15.7673 4.74482C15.9031 4.69873 16.0284 4.62599 16.1359 4.53078C16.2433 4.43556 16.3309 4.31979 16.3933 4.19027C16.4558 4.06074 16.4919 3.92003 16.4996 3.77634C16.5073 3.63265 16.4864 3.48879 16.4382 3.35328L15.561 0.754224C15.4891 0.528305 15.3455 0.332186 15.152 0.196102C14.9585 0.0600175 14.7259 -0.00850947 14.4898 0.000844922Z" fill="#1188EE"/>
<path fill-rule="evenodd" clip-rule="evenodd" d="M7.5821 33.7733C7.47977 33.781 7.38176 33.818 7.29955 33.8796L0.999097 38.3795C0.941225 38.4209 0.892045 38.4733 0.854367 38.5338C0.816689 38.5943 0.79125 38.6616 0.779502 38.7319C0.767755 38.8023 0.769928 38.8743 0.7859 38.9439C0.801871 39.0134 0.831327 39.0792 0.872585 39.1373C0.913844 39.1954 0.966097 39.2447 1.02636 39.2825C1.08663 39.3203 1.15372 39.3459 1.22382 39.3577C1.29392 39.3694 1.36564 39.3673 1.43489 39.3513C1.50415 39.3353 1.56958 39.3057 1.62746 39.2643L7.92369 34.7601C8.02071 34.6927 8.09306 34.5952 8.12966 34.4826C8.16626 34.37 8.1651 34.2484 8.12636 34.1365C8.08762 34.0246 8.01342 33.9287 7.91513 33.8632C7.81683 33.7977 7.69986 33.7657 7.5821 33.7733Z" fill="#1188EE"/>
<path fill-rule="evenodd" clip-rule="evenodd" d="M9.65694 36.1692C9.55474 36.1815 9.45817 36.223 9.37861 36.2885L2.22208 41.9401C2.16195 41.9824 2.11104 42.0364 2.07247 42.0991C2.0339 42.1618 2.00847 42.2318 1.99773 42.3047C1.987 42.3776 1.99118 42.4518 2.01004 42.523C2.02889 42.5942 2.06202 42.6608 2.10739 42.7188C2.15276 42.7767 2.20942 42.8249 2.27391 42.8601C2.3384 42.8953 2.40937 42.9168 2.48247 42.9236C2.55557 42.9303 2.62927 42.922 2.69906 42.8992C2.76886 42.8764 2.83328 42.8394 2.88839 42.7907L10.0449 37.1394C10.1388 37.0675 10.2066 36.9666 10.2379 36.8523C10.2692 36.738 10.2623 36.6165 10.2183 36.5065C10.1743 36.3965 10.0955 36.3041 9.99414 36.2433C9.89274 36.1825 9.77429 36.1559 9.65694 36.1692Z" fill="#1188EE"/>
<path fill-rule="evenodd" clip-rule="evenodd" d="M12.5499 38.18C12.4283 38.1862 12.3124 38.2336 12.221 38.3144L3.53783 45.786C3.48252 45.8319 3.43688 45.8886 3.4036 45.9524C3.37031 46.0163 3.35005 46.0862 3.34399 46.158C3.33793 46.2298 3.3462 46.3019 3.36832 46.3704C3.39043 46.439 3.42595 46.5026 3.47278 46.5572C3.51962 46.6118 3.57683 46.6566 3.64108 46.6887C3.70533 46.7209 3.77532 46.7396 3.84696 46.7443C3.91859 46.749 3.99044 46.7393 4.05829 46.7157C4.12614 46.6922 4.18863 46.6553 4.2421 46.6072L12.9253 39.1367C13.0121 39.0637 13.0739 38.9651 13.1019 38.8549C13.1299 38.7447 13.1226 38.6284 13.0811 38.5226C13.0395 38.4168 12.9659 38.3266 12.8706 38.2652C12.7753 38.2037 12.6631 38.1739 12.5499 38.18Z" fill="#1188EE"/>
<path fill-rule="evenodd" clip-rule="evenodd" d="M14.7429 41.1475C14.6207 41.1549 14.5047 41.2038 14.4139 41.2861L5.44399 49.1387C5.38793 49.1846 5.34164 49.2412 5.30785 49.3054C5.27407 49.3696 5.25349 49.4402 5.24734 49.5125C5.24118 49.5849 5.24958 49.6576 5.27203 49.7266C5.29448 49.7956 5.33052 49.8594 5.37802 49.9142C5.42551 49.9689 5.48349 50.0138 5.54851 50.0457C5.61353 50.0775 5.68426 50.0958 5.75651 50.0996C5.82875 50.1035 5.90103 50.0929 5.96905 50.0682C6.03707 50.0434 6.09945 50.0051 6.15248 49.9557L15.1224 42.1031C15.2097 42.0299 15.2717 41.9307 15.2996 41.82C15.3275 41.7093 15.3198 41.5927 15.2778 41.4866C15.2357 41.3806 15.1613 41.2906 15.0653 41.2295C14.9692 41.1684 14.8564 41.1404 14.7429 41.1475Z" fill="#1188EE"/>
<path fill-rule="evenodd" clip-rule="evenodd" d="M17.1424 43.8313C17.0201 43.8348 16.9027 43.8798 16.8093 43.9591L6.98326 52.0998C6.87254 52.1914 6.80256 52.3233 6.78872 52.4666C6.77489 52.6098 6.81832 52.7525 6.90948 52.8637C7.00063 52.9748 7.13204 53.0453 7.27479 53.0592C7.41754 53.0731 7.55994 53.0293 7.67066 52.9378L17.4967 44.7973C17.5853 44.7263 17.6494 44.6291 17.6799 44.5195C17.7103 44.4098 17.7056 44.2932 17.6664 44.1864C17.6272 44.0796 17.5555 43.9878 17.4615 43.9242C17.3674 43.8606 17.2558 43.8276 17.1424 43.8313Z" fill="#1188EE"/>
<path fill-rule="evenodd" clip-rule="evenodd" d="M19.4197 47.1841C19.3163 47.1897 19.2168 47.2251 19.1329 47.2859L9.01593 54.4697C8.95805 54.5108 8.90881 54.5629 8.87101 54.6231C8.83322 54.6834 8.80762 54.7506 8.79567 54.8208C8.78372 54.8909 8.78566 54.9628 8.80137 55.0322C8.81708 55.1016 8.84627 55.1672 8.88725 55.2253C8.92824 55.2834 8.98022 55.3329 9.04024 55.3708C9.10025 55.4088 9.16713 55.4342 9.23703 55.4462C9.30694 55.4582 9.37851 55.4565 9.44767 55.4407C9.51682 55.4249 9.5822 55.3956 9.64007 55.3544L19.7571 48.1707C19.8537 48.1034 19.9258 48.0063 19.9624 47.8942C19.999 47.7821 19.9982 47.6611 19.96 47.5494C19.9218 47.4378 19.8484 47.3418 19.7509 47.2759C19.6534 47.21 19.5371 47.1776 19.4197 47.1841Z" fill="#1188EE"/>
<path fill-rule="evenodd" clip-rule="evenodd" d="M22.3169 49.0975C22.1947 49.0963 22.0758 49.1368 21.9795 49.2123L12.5331 56.3963C12.419 56.4833 12.344 56.6121 12.3247 56.7546C12.3053 56.897 12.3431 57.0414 12.4298 57.1559C12.5165 57.2704 12.6449 57.3458 12.7869 57.3652C12.9288 57.3846 13.0726 57.3466 13.1867 57.2596L22.6332 50.0761C22.7243 50.0086 22.792 49.914 22.8267 49.8057C22.8613 49.6974 22.8611 49.5808 22.8261 49.4726C22.7911 49.3645 22.7231 49.27 22.6317 49.2028C22.5403 49.1355 22.4302 49.0984 22.3169 49.0975Z" fill="#1188EE"/>
<path fill-rule="evenodd" clip-rule="evenodd" d="M25.1888 51.1082C25.0666 51.1071 24.9477 51.1476 24.8514 51.2231L14.6374 58.7878C14.5791 58.8296 14.5296 58.8825 14.4918 58.9437C14.4541 59.0048 14.4288 59.0726 14.4175 59.1437C14.4063 59.2147 14.4092 59.2873 14.4261 59.3572C14.4431 59.4271 14.4737 59.493 14.5163 59.5509C14.5588 59.6087 14.6124 59.6574 14.674 59.6943C14.7355 59.7311 14.8037 59.7556 14.8746 59.7657C14.9456 59.7758 15.0178 59.7714 15.0871 59.7533C15.1565 59.7351 15.2215 59.7033 15.2784 59.6596L25.4924 52.0909C25.5846 52.0246 25.6536 51.9308 25.6897 51.8229C25.7258 51.715 25.7271 51.5985 25.6935 51.4898C25.6599 51.3811 25.5931 51.2857 25.5025 51.2173C25.4119 51.1488 25.3021 51.1105 25.1888 51.1082Z" fill="#1188EE"/>
<path fill-rule="evenodd" clip-rule="evenodd" d="M28.0607 53.4069C27.9196 53.4009 27.7818 53.4507 27.6769 53.5455L19.3775 60.8269C19.3215 60.8728 19.2752 60.9293 19.2414 60.9936C19.2076 61.0578 19.187 61.1284 19.1809 61.2007C19.1747 61.2731 19.1831 61.3457 19.2056 61.4148C19.228 61.4838 19.264 61.5476 19.3115 61.6024C19.359 61.6571 19.417 61.702 19.482 61.7338C19.5471 61.7657 19.6178 61.784 19.69 61.7878C19.7623 61.7917 19.8346 61.7811 19.9026 61.7563C19.9706 61.7316 20.033 61.6933 20.086 61.6439L28.3896 54.3628C28.4733 54.2923 28.5337 54.1978 28.5628 54.0921C28.592 53.9864 28.5885 53.8746 28.5529 53.7709C28.5172 53.6673 28.4511 53.5768 28.3632 53.5116C28.2753 53.4465 28.1698 53.4105 28.0607 53.4069Z" fill="#1188EE"/>
<path fill-rule="evenodd" clip-rule="evenodd" d="M31.5398 55.9934C31.3997 56.0011 31.2681 56.0632 31.1729 56.1667L25.0665 62.5845C25.0175 62.6359 24.979 62.6965 24.9533 62.7628C24.9277 62.8292 24.9153 62.8999 24.9168 62.9711C24.9184 63.0422 24.9339 63.1123 24.9625 63.1774C24.9911 63.2426 25.0321 63.3015 25.0834 63.3507C25.1346 63.3999 25.195 63.4384 25.261 63.4642C25.3271 63.49 25.3976 63.5023 25.4685 63.5007C25.5394 63.4992 25.6093 63.4836 25.6741 63.455C25.739 63.4263 25.7976 63.3852 25.8467 63.3338L31.9531 56.916C32.03 56.8382 32.0817 56.7389 32.1012 56.631C32.1207 56.5232 32.1072 56.4119 32.0624 56.312C32.0177 56.212 31.9437 56.1281 31.8504 56.0712C31.7572 56.0143 31.6488 55.9873 31.5398 55.9934Z" fill="#1188EE"/>
</svg>
