<svg width="179" height="71" viewBox="0 0 179 71" fill="none" xmlns="http://www.w3.org/2000/svg">
<path d="M0.634277 12.6823C0.634277 12.6823 32.5926 -13.6029 53.0787 12.6823C73.5648 38.9674 97.3287 -12.7826 111.259 12.6823C125.19 38.1471 177.634 12.6823 177.634 12.6823M0.634277 35.6823C0.634277 35.6823 32.5926 9.39714 53.0787 35.6823C73.5648 61.9674 97.3287 10.2174 111.259 35.6823C125.19 61.1471 177.634 35.6823 177.634 35.6823M0.634277 58.6823C0.634277 58.6823 32.5926 32.3971 53.0787 58.6823C73.5648 84.9674 97.3287 33.2174 111.259 58.6823C125.19 84.1471 177.634 58.6823 177.634 58.6823" stroke="#1188EE" stroke-width="2"/>
</svg>
